HIERARCHY
ROOT joint_0
{
	OFFSET 0.000000 0.000000 0.000000
	CHANNELS 6 Xposition Yposition Zposition Zrotation Yrotation Xrotation 
	JOINT joint_1
	{
		OFFSET 6.579712 -2.778931 100.531982
		CHANNELS 3 Zrotation Yrotation Xrotation
		JOINT joint_2
		{
			OFFSET -3.313232 -1.302856 91.974976
			CHANNELS 3 Zrotation Yrotation Xrotation
			JOINT joint_3
			{
				OFFSET -3.421509 -1.641846 91.864014
				CHANNELS 3 Zrotation Yrotation Xrotation
				JOINT joint_4
				{
					OFFSET 7.697388 -4.642578 123.278931
					CHANNELS 3 Zrotation Yrotation Xrotation
					JOINT joint_5
					{
						OFFSET 24.842529 -5.941528 79.695068
						CHANNELS 3 Zrotation Yrotation Xrotation
						End Site
						{
							OFFSET 0.000000 0.000000 0.000000
						}
					}
				}
				JOINT joint_6
				{
					OFFSET -0.159668 -29.112976 68.364014
					CHANNELS 3 Zrotation Yrotation Xrotation
					JOINT joint_7
					{
						OFFSET -18.356079 -115.987061 -20.069092
						CHANNELS 3 Zrotation Yrotation Xrotation
						JOINT joint_8
						{
							OFFSET 31.719482 -11.733276 -267.170898
							CHANNELS 3 Zrotation Yrotation Xrotation
							JOINT joint_9
							{
								OFFSET 29.329956 -5.879517 -234.654053
								CHANNELS 3 Zrotation Yrotation Xrotation
								End Site
								{
									OFFSET 0.000000 0.000000 0.000000
								}
							}
						}
					}
				}
				JOINT joint_10
				{
					OFFSET 8.802979 23.897949 69.798950
					CHANNELS 3 Zrotation Yrotation Xrotation
					JOINT joint_11
					{
						OFFSET 21.159058 115.524292 -19.981934
						CHANNELS 3 Zrotation Yrotation Xrotation
						JOINT joint_12
						{
							OFFSET 18.809204 5.403442 -268.593018
							CHANNELS 3 Zrotation Yrotation Xrotation
							JOINT joint_13
							{
								OFFSET 20.807861 0.421265 -235.639038
								CHANNELS 3 Zrotation Yrotation Xrotation
								End Site
								{
									OFFSET 0.000000 0.000000 0.000000
								}
							}
						}
					}
				}
			}
		}
	}
	JOINT joint_14
	{
		OFFSET -9.713379 -79.513916 -99.348022
		CHANNELS 3 Zrotation Yrotation Xrotation
		JOINT joint_15
		{
			OFFSET -40.607788 -6.518372 -502.938019
			CHANNELS 3 Zrotation Yrotation Xrotation
			JOINT joint_16
			{
				OFFSET -19.807617 -7.437378 -399.590012
				CHANNELS 3 Zrotation Yrotation Xrotation
				JOINT joint_17
				{
					OFFSET 171.701660 -44.751282 -77.782000
					CHANNELS 3 Zrotation Yrotation Xrotation
					End Site
					{
						OFFSET 0.000000 0.000000 0.000000
					}
				}
			}
		}
	}
	JOINT joint_18
	{
		OFFSET 17.854858 79.618652 -98.128052
		CHANNELS 3 Zrotation Yrotation Xrotation
		JOINT joint_19
		{
			OFFSET -24.848877 16.861816 -503.722992
			CHANNELS 3 Zrotation Yrotation Xrotation
			JOINT joint_20
			{
				OFFSET -30.162476 14.470093 -398.750008
				CHANNELS 3 Zrotation Yrotation Xrotation
				JOINT joint_21
				{
					OFFSET 176.096680 -10.987549 -80.021000
					CHANNELS 3 Zrotation Yrotation Xrotation
					End Site
					{
						OFFSET 0.000000 0.000000 0.000000
					}
				}
			}
		}
	}
}
MOTION
Frames: 9
Frame Time: 0.016667
-1084.702026 935.713013 1101.588989 5.686061 -1.690895 -0.080399 -1.358117 -0.856931 -0.909767 -1.300055 0.188365 0.083828 -1.313481 -0.181509 -0.117176 0.174563 1.896751 -0.101088 0.000000 0.000000 0.000000 3.678476 0.739629 0.627760 -0.294008 1.835849 -1.954722 0.157116 0.990967 1.517692 0.000000 0.000000 0.000000 0.018658 0.917229 0.861559 -0.001760 1.385946 -1.717614 0.361873 -1.412783 4.275711 0.000000 0.000000 0.000000 0.226960 -0.728632 -1.290250 -0.100039 1.627319 2.475250 0.132430 -1.939911 -0.445882 0.000000 0.000000 0.000000 0.734539 1.722917 -0.460519 0.677128 -1.061718 -1.145829 0.645947 1.126082 0.364225 0.000000 0.000000 0.000000 
-1084.776978 935.834534 1101.458984 5.630820 -1.693828 -0.110248 -1.339273 -0.836933 -0.861268 -1.283803 0.184325 0.077246 -1.296559 -0.174126 -0.111001 0.174810 1.896230 -0.102141 0.000000 0.000000 0.000000 3.649541 0.745211 0.648757 -0.301657 1.849996 -2.011125 0.159029 0.974769 1.529092 0.000000 0.000000 0.000000 -0.002378 0.893137 0.801076 0.000708 1.346088 -1.669721 0.361057 -1.408415 4.263954 0.000000 0.000000 0.000000 0.242675 -0.709153 -1.316374 -0.093756 1.568457 2.577877 0.141887 -1.902076 -0.431761 0.000000 0.000000 0.000000 0.755487 1.691269 -0.419044 0.705785 -0.966669 -1.181709 0.663829 1.010154 0.365105 0.000000 0.000000 0.000000 
-1084.834961 935.957214 1101.332031 5.578884 -1.701148 -0.139791 -1.324597 -0.811073 -0.813411 -1.271889 0.177833 0.069609 -1.283852 -0.164977 -0.104319 0.174799 1.899363 -0.101491 0.000000 0.000000 0.000000 3.621950 0.748998 0.671359 -0.310186 1.864098 -2.074547 0.161792 0.955205 1.546662 0.000000 0.000000 0.000000 -0.017987 0.869201 0.740823 0.002720 1.306400 -1.627225 0.361108 -1.390262 4.261700 0.000000 0.000000 0.000000 0.257468 -0.685452 -1.336924 -0.087072 1.513595 2.669095 0.151268 -1.866280 -0.418203 0.000000 0.000000 0.000000 0.773590 1.670122 -0.377875 0.730818 -0.883180 -1.215833 0.679093 0.902997 0.365346 0.000000 0.000000 0.000000 
-1084.876465 936.077881 1101.209961 5.529287 -1.710587 -0.168692 -1.313306 -0.784015 -0.767422 -1.263341 0.171959 0.060863 -1.274448 -0.156224 -0.096634 0.174831 1.906317 -0.100061 0.000000 0.000000 0.000000 3.596872 0.752328 0.694088 -0.318934 1.878501 -2.139630 0.164869 0.934971 1.566639 0.000000 0.000000 0.000000 -0.029440 0.847175 0.681669 0.004477 1.268757 -1.588540 0.361677 -1.364479 4.265056 0.000000 0.000000 0.000000 0.271972 -0.660701 -1.351603 -0.079238 1.463982 2.747295 0.161240 -1.832738 -0.404965 0.000000 0.000000 0.000000 0.789883 1.656347 -0.338394 0.753247 -0.809988 -1.246502 0.692778 0.804527 0.365412 0.000000 0.000000 0.000000 
-1084.896851 936.198303 1101.088989 5.482762 -1.720753 -0.197487 -1.303794 -0.761738 -0.721885 -1.256457 0.165973 0.051711 -1.266706 -0.147345 -0.089366 0.175290 1.917071 -0.099080 0.000000 0.000000 0.000000 3.574175 0.758118 0.715449 -0.327440 1.895034 -2.201638 0.167799 0.913407 1.585093 0.000000 0.000000 0.000000 -0.041116 0.827712 0.624670 0.006166 1.234425 -1.551659 0.362183 -1.337597 4.267439 0.000000 0.000000 0.000000 0.286478 -0.634672 -1.362285 -0.070517 1.416459 2.818107 0.171765 -1.800373 -0.391783 0.000000 0.000000 0.000000 0.805526 1.647073 -0.300110 0.774518 -0.743371 -1.274789 0.705913 0.710105 0.365483 0.000000 0.000000 0.000000 
-1084.893555 936.315674 1100.969971 5.441419 -1.731384 -0.225885 -1.298092 -0.747529 -0.678044 -1.253069 0.163953 0.042760 -1.262585 -0.141976 -0.082086 0.176606 1.933617 -0.099438 0.000000 0.000000 0.000000 3.556706 0.767724 0.735166 -0.335608 1.915215 -2.258856 0.170425 0.887734 1.599993 0.000000 0.000000 0.000000 -0.051170 0.812814 0.569469 0.007959 1.204746 -1.514916 0.362532 -1.311431 4.267701 0.000000 0.000000 0.000000 0.301014 -0.606429 -1.368747 -0.060827 1.369152 2.881508 0.182898 -1.769561 -0.378729 0.000000 0.000000 0.000000 0.820541 1.641398 -0.263387 0.794704 -0.682342 -1.300839 0.718517 0.619780 0.365570 0.000000 0.000000 0.000000 
-1084.869141 936.432678 1100.853027 5.403329 -1.742796 -0.253909 -1.294033 -0.738051 -0.635306 -1.251188 0.161269 0.033692 -1.259949 -0.135422 -0.075140 0.177942 1.953180 -0.099129 0.000000 0.000000 0.000000 3.540995 0.779567 0.753755 -0.343542 1.937258 -2.313145 0.172891 0.860711 1.613261 0.000000 0.000000 0.000000 -0.062144 0.800220 0.516215 0.009696 1.178213 -1.480032 0.362882 -1.284973 4.267806 0.000000 0.000000 0.000000 0.315571 -0.576766 -1.371376 -0.050203 1.323914 2.937080 0.194604 -1.740171 -0.365787 0.000000 0.000000 0.000000 0.834870 1.640258 -0.228204 0.813666 -0.627946 -1.324404 0.730510 0.533702 0.365646 0.000000 0.000000 0.000000 
-1084.829590 936.549622 1100.735962 5.368549 -1.754734 -0.281895 -1.290040 -0.732531 -0.593771 -1.249228 0.158998 0.024531 -1.257272 -0.131157 -0.068029 0.179130 1.977081 -0.097303 0.000000 0.000000 0.000000 3.525860 0.793374 0.772056 -0.351337 1.961054 -2.365914 0.175263 0.836924 1.626635 0.000000 0.000000 0.000000 -0.070789 0.789641 0.463320 0.011429 1.153426 -1.445540 0.362896 -1.262616 4.264533 0.000000 0.000000 0.000000 0.329170 -0.547073 -1.371644 -0.039945 1.282367 2.987058 0.205730 -1.710921 -0.353144 0.000000 0.000000 0.000000 0.847710 1.643049 -0.192875 0.830821 -0.579586 -1.347638 0.741118 0.450808 0.365291 0.000000 0.000000 0.000000 
-1084.770020 936.667053 1100.619019 5.335461 -1.767638 -0.309904 -1.286073 -0.733822 -0.554853 -1.246952 0.158293 0.017108 -1.254454 -0.128399 -0.062568 0.179661 2.006814 -0.091957 0.000000 0.000000 0.000000 3.515080 0.808864 0.790212 -0.358911 1.986930 -2.416810 0.177546 0.820129 1.641094 0.000000 0.000000 0.000000 -0.072223 0.781167 0.411869 0.013127 1.129874 -1.411720 0.362494 -1.246064 4.257234 0.000000 0.000000 0.000000 0.341769 -0.517157 -1.369557 -0.030103 1.245452 3.031407 0.216252 -1.682416 -0.340965 0.000000 0.000000 0.000000 0.859051 1.652188 -0.156651 0.846060 -0.540708 -1.371669 0.750309 0.371938 0.364544 0.000000 0.000000 0.000000 
